<svg id="Layer_1" data-name="Layer 1" xmlns="http://www.w3.org/2000/svg" xmlns:xlink="http://www.w3.org/1999/xlink" viewBox="0 0 680 270.1"><defs><linearGradient id="linear-gradient" x1="86.94" y1="135.05" x2="193.44" y2="135.05" gradientUnits="userSpaceOnUse"><stop offset=".04" stop-color="#b92d2a"/><stop offset=".29" stop-color="#e42d2a"/><stop offset=".42" stop-color="#dd312e"/><stop offset=".81" stop-color="#df3e3c"/><stop offset="1" stop-color="#e4322f"/></linearGradient><linearGradient id="linear-gradient-2" x1="114.15" y1="146.74" x2="177.12" y2="146.74" gradientUnits="userSpaceOnUse"><stop offset="0" stop-color="#480c13"/><stop offset=".17" stop-color="#520c15"/><stop offset=".44" stop-color="#6c0c1a"/><stop offset=".61" stop-color="#7f0c1d"/></linearGradient><linearGradient id="linear-gradient-3" x1="114.15" y1="115.25" x2="177.12" y2="115.25" xlink:href="#linear-gradient-2"/><linearGradient id="linear-gradient-4" x1="177.19" y1="86.25" x2="142.83" y2="115.8" gradientUnits="userSpaceOnUse"><stop offset="0" stop-opacity=".7"/><stop offset=".7" stop-opacity=".3"/><stop offset="1" stop-color="#4f4f4f" stop-opacity=".1"/></linearGradient><linearGradient id="linear-gradient-5" x1="157.33" y1="105.31" x2="179.65" y2="82.99" gradientUnits="userSpaceOnUse"><stop offset=".2" stop-color="#7f0c1d"/><stop offset=".74" stop-color="#7f0c1d"/><stop offset=".93" stop-color="#590c16"/><stop offset="1" stop-color="#480c13"/></linearGradient><style>.cls-1{fill:#fff}.cls-4{fill:#7f0c1d;opacity:.25}</style></defs><path class="cls-1" d="M269.15 114.31a5.07 5.07 0 01-1.28 1.5 2.81 2.81 0 01-1.68.47 4.16 4.16 0 01-2.13-.69c-.76-.47-1.65-1-2.67-1.51a24.68 24.68 0 00-3.5-1.5 13.94 13.94 0 00-4.62-.7q-4.67 0-7 2.09a7 7 0 00-2.33 5.45 5.12 5.12 0 001.28 3.57 11.13 11.13 0 003.36 2.44 31.06 31.06 0 004.74 1.84q2.64.81 5.43 1.77a48.47 48.47 0 015.42 2.27 19.23 19.23 0 014.74 3.27 15 15 0 013.36 4.83 16.92 16.92 0 011.28 6.93 22.3 22.3 0 01-1.55 8.32 19.72 19.72 0 01-4.46 6.77 20.82 20.82 0 01-7.2 4.56 26.9 26.9 0 01-9.71 1.66 30.54 30.54 0 01-6.17-.63 35.56 35.56 0 01-5.93-1.75 33.15 33.15 0 01-5.36-2.69 23.86 23.86 0 01-4.39-3.5l3.95-6.37a3.83 3.83 0 011.3-1.19 3.33 3.33 0 011.7-.47 4.65 4.65 0 012.56.9c.9.59 1.93 1.25 3.09 2a24.38 24.38 0 004.06 2 15.28 15.28 0 005.54.9q4.71 0 7.29-2.15t2.58-6.42a6 6 0 00-1.27-4 10.35 10.35 0 00-3.35-2.56 25.74 25.74 0 00-4.71-1.77q-2.64-.74-5.43-1.64a44.27 44.27 0 01-5.42-2.15 16.6 16.6 0 01-4.71-3.32 15.86 15.86 0 01-3.35-5.11 19.79 19.79 0 01-1.28-7.59A18 18 0 01237 107a21.15 21.15 0 016.84-4.26 25.19 25.19 0 019.31-1.61 31.69 31.69 0 0110.85 1.8 24.57 24.57 0 018.45 5zM315.09 131a5.28 5.28 0 01-1.07 1.09 2.58 2.58 0 01-1.53.39 3.29 3.29 0 01-1.73-.52c-.55-.34-1.19-.72-1.9-1.12a15.08 15.08 0 00-2.56-1.12 11.13 11.13 0 00-3.68-.52 10.8 10.8 0 00-4.82 1 9.08 9.08 0 00-3.39 2.89 13.15 13.15 0 00-2 4.58 26 26 0 00-.65 6.06q0 7.08 2.85 10.85a9.25 9.25 0 007.79 3.77 13.13 13.13 0 002.93-.29 10.1 10.1 0 002.16-.74 8.64 8.64 0 001.59-1c.45-.36.88-.69 1.28-1a8 8 0 011.21-.75 3.17 3.17 0 011.37-.29 2.64 2.64 0 012.24 1.08l3.55 4.49a21.5 21.5 0 01-4.22 3.79 21.88 21.88 0 01-4.64 2.37 23.47 23.47 0 01-4.87 1.22 37 37 0 01-4.89.33A20.79 20.79 0 01292 166a19.29 19.29 0 01-6.68-4.64 22.19 22.19 0 01-4.55-7.5 28.28 28.28 0 01-1.69-10.13 29.25 29.25 0 011.48-9.42 21.41 21.41 0 014.35-7.54 20.13 20.13 0 017.12-5 24.69 24.69 0 019.8-1.82 23.57 23.57 0 019.28 1.7 22.35 22.35 0 017.18 4.94zm8.84-3.91a27.67 27.67 0 019-5.49 30.65 30.65 0 0110.67-1.82 19.11 19.11 0 017.38 1.35 15.64 15.64 0 015.52 3.74 16.5 16.5 0 013.48 5.72 21.24 21.24 0 011.21 7.27v29.07h-5.65a5.75 5.75 0 01-2.67-.49 3.64 3.64 0 01-1.51-2.07l-1-3a42.69 42.69 0 01-3.36 2.73 19.27 19.27 0 01-3.39 2 17.21 17.21 0 01-3.74 1.19 22.53 22.53 0 01-4.47.41 18.08 18.08 0 01-5.56-.81 12.09 12.09 0 01-4.33-2.4 10.64 10.64 0 01-2.8-4 14.16 14.16 0 01-1-5.47 11.18 11.18 0 011.3-5.12 12.63 12.63 0 014.47-4.64 28.36 28.36 0 018.43-3.46 59.16 59.16 0 0113.21-1.54v-2.38q0-4.35-1.84-6.39a6.76 6.76 0 00-5.29-2 12.92 12.92 0 00-4.26.6 21.23 21.23 0 00-3 1.3l-2.4 1.3a5.31 5.31 0 01-2.6.61 3.54 3.54 0 01-2.17-.65 6 6 0 01-1.46-1.55zm25.21 20.5a58.63 58.63 0 00-7.54.79 17.91 17.91 0 00-4.77 1.46 6.32 6.32 0 00-2.52 2 4.51 4.51 0 00-.74 2.49 4.44 4.44 0 001.51 3.81 6.86 6.86 0 004.19 1.12 12 12 0 005.36-1.1 16 16 0 004.51-3.43zM383.37 100v66.89H371V100zm9.29 27.09a27.63 27.63 0 019-5.49 30.71 30.71 0 0110.68-1.82 19.11 19.11 0 017.38 1.35 15.64 15.64 0 015.52 3.74 16.33 16.33 0 013.47 5.72 21 21 0 011.22 7.27v29.07h-5.66a5.8 5.8 0 01-2.67-.49 3.68 3.68 0 01-1.5-2.07l-1-3a40.89 40.89 0 01-3.38 2.69 19.27 19.27 0 01-3.39 2 17.47 17.47 0 01-3.75 1.19 22.5 22.5 0 01-4.46.41 18 18 0 01-5.56-.81 12.09 12.09 0 01-4.33-2.4 10.66 10.66 0 01-2.81-4 14.35 14.35 0 01-1-5.47 11.18 11.18 0 011.3-5.12 12.59 12.59 0 014.46-4.64 28.54 28.54 0 018.44-3.46 59.09 59.09 0 0113.21-1.54v-2.38c0-2.9-.62-5-1.84-6.39a6.77 6.77 0 00-5.3-2 13 13 0 00-4.26.6 21.08 21.08 0 00-3 1.3l-2.4 1.3a5.34 5.34 0 01-2.6.61 3.59 3.59 0 01-2.18-.65 6.14 6.14 0 01-1.46-1.55zm25.21 20.5a58.43 58.43 0 00-7.54.79 18 18 0 00-4.78 1.46 6.28 6.28 0 00-2.51 2 4.51 4.51 0 00-.74 2.49 4.46 4.46 0 001.5 3.81 6.9 6.9 0 004.2 1.12 12.07 12.07 0 005.36-1.1 16.11 16.11 0 004.51-3.43zm55.18 19.34a2 2 0 01-2.16-1.66l-.71-5.52a24.05 24.05 0 01-6.67 5.68 17.05 17.05 0 01-8.59 2.13 16.33 16.33 0 01-7.09-1.51 14.65 14.65 0 01-5.42-4.41 21.09 21.09 0 01-3.46-7.27 37.35 37.35 0 01-1.21-10 31.26 31.26 0 011.35-9.35 22.56 22.56 0 013.91-7.52 17.75 17.75 0 0114.42-6.82 16.45 16.45 0 017.13 1.41 17.15 17.15 0 015.3 4v-25.24h8v66.08zm-15.48-5.83a12.84 12.84 0 006.84-1.8 19.6 19.6 0 005.41-5.07v-22a12.69 12.69 0 00-4.82-4.13 13.94 13.94 0 00-5.81-1.19q-6.36 0-9.78 4.53T446 144.36a32.85 32.85 0 00.76 7.61 14.56 14.56 0 002.24 5.2 8.9 8.9 0 003.63 3 12.36 12.36 0 004.94.93zm52.04-40.33a23.23 23.23 0 019 1.66 18.79 18.79 0 016.82 4.71 20.75 20.75 0 014.31 7.38 32 32 0 010 19.35 20.75 20.75 0 01-4.31 7.36 18.62 18.62 0 01-6.82 4.69 25.49 25.49 0 01-18 0 19 19 0 01-6.84-4.69 21 21 0 01-4.35-7.36 31.55 31.55 0 010-19.35 21 21 0 014.35-7.38 19.12 19.12 0 016.84-4.71 23.32 23.32 0 019-1.66zm0 40.55q6.72 0 10-4.51t3.39-12.58q0-8.11-3.32-12.65t-10-4.53a14 14 0 00-5.92 1.16 11 11 0 00-4.2 3.37A14.91 14.91 0 00497 137a29.19 29.19 0 00-.83 7.25 28.83 28.83 0 00.83 7.22 14.63 14.63 0 002.51 5.36 11.18 11.18 0 004.2 3.35 14 14 0 005.9 1.14zm62.49-31.76a3.54 3.54 0 01-.72.76 1.69 1.69 0 01-1 .27 2.54 2.54 0 01-1.46-.56 22.87 22.87 0 00-2-1.23 17.22 17.22 0 00-2.94-1.24 14 14 0 00-4.24-.56 13.84 13.84 0 00-5.88 1.19 11.43 11.43 0 00-4.28 3.43 15.58 15.58 0 00-2.6 5.43 26.67 26.67 0 00-.88 7.13 26 26 0 00.94 7.34 15.83 15.83 0 002.65 5.38 11.3 11.3 0 004.15 3.32 12.71 12.71 0 005.5 1.15 13.91 13.91 0 004.8-.7 14.58 14.58 0 003.14-1.55 23.42 23.42 0 002.06-1.54 2.47 2.47 0 011.61-.7 1.69 1.69 0 011.53.76l2.24 2.92a17.34 17.34 0 01-7.4 5.32 26.29 26.29 0 01-9.38 1.68A19.91 19.91 0 01550 166a18 18 0 01-6.35-4.56 21.39 21.39 0 01-4.24-7.33 29.55 29.55 0 01-1.55-9.92 30 30 0 011.41-9.37 21.41 21.41 0 014.13-7.43 18.75 18.75 0 016.71-4.86 22.53 22.53 0 019.15-1.75 21.59 21.59 0 018.43 1.54 20.24 20.24 0 016.51 4.38z"/><path d="M192 110.14v81.36a8 8 0 01-8 8h-77a7.74 7.74 0 01-4.21-1.21 7.93 7.93 0 01-3.7-6.72V78.58a8 8 0 018-8h45.48a2.61 2.61 0 011.2.28l.14.06.18.1a1.5 1.5 0 01.33.23l37 37a2.61 2.61 0 01.39.64 3 3 0 01.19 1.25z" fill="url(#linear-gradient)"/><path d="M191.89 108.93h-35.51a2.82 2.82 0 01-2.51-2.81v-35.2a2.81 2.81 0 01.64.39l37 37a3.54 3.54 0 01.38.62z" fill="none"/><path class="cls-4" d="M117.71 146.37v7.87c0 1.32 28.63 3.55 47.28 7.87 9-2.09 15.69-4.67 15.69-7.87v-7.87c0-3.21-6.68-5.79-15.69-7.88-18.65 4.33-47.28 6.55-47.28 7.88m0-31.49v7.87c0 1.33 28.63 3.55 47.28 7.87 9-2.09 15.69-4.66 15.69-7.87v-7.87c0-3.21-6.68-5.79-15.69-7.87-18.65 4.32-47.28 6.54-47.28 7.87"/><path class="cls-4" d="M117.71 133.51v23.62c0-2 63-5.91 63-15.75v-23.61c0 9.84-63 13.77-63 15.74m62.97-27.7v4.09c0 9.84-63 13.78-63 15.73V102c0-1.4 32.17-3.82 50.52-8.67zM117.71 165v23.62c0-2 63-5.91 63-15.75v-23.61c0 9.84-63 13.77-63 15.74"/><path d="M114.15 142.8v7.88c0 1.32 28.63 3.55 47.28 7.87 9-2.09 15.69-4.67 15.69-7.87v-7.88c0-3.2-6.68-5.78-15.69-7.87-18.65 4.33-47.28 6.55-47.28 7.87" fill="url(#linear-gradient-2)" opacity=".75"/><path d="M114.15 111.32v7.87c0 1.32 28.63 3.55 47.28 7.87 9-2.09 15.69-4.67 15.69-7.87v-7.87c0-3.21-6.68-5.79-15.69-7.88-18.65 4.33-47.28 6.55-47.28 7.88" fill="url(#linear-gradient-3)" opacity=".75"/><path class="cls-1" d="M114.15 130v23.62c0-2 63-5.91 63-15.75v-23.66c0 9.84-63 13.77-63 15.74m62.97-27.7v4.09c0 9.84-63 13.78-63 15.73v-23.6c0-1.41 32.17-3.82 50.52-8.68zm-62.97 59.19v23.61c0-2 63-5.9 63-15.74v-23.62c0 9.84-63 13.78-63 15.75"/><path d="M192 110.41v7.8l-1.47-1.74a5.48 5.48 0 00-5.71-1.75c-7.95 2.3-27.8 8-37.2 10.11a3.34 3.34 0 01-4.08-3.6l4.6-43.39a6.41 6.41 0 00-2.92-6.08l-1.85-1.13h9.15v36.69a3.1 3.1 0 003.09 3.09z" fill="url(#linear-gradient-4)"/><path d="M192 110.14v6.25a6 6 0 00-5.94-5.94h-31a3.12 3.12 0 01-2.2-1.11 2.91 2.91 0 01-.6-1.28 2.64 2.64 0 01-.07-.65V76.58a6 6 0 00-5.95-6h6.25a2.73 2.73 0 011.22.28l.14.06.18.1a1.5 1.5 0 01.33.23l37 37a2.61 2.61 0 01.39.64 3 3 0 01.25 1.25z" fill="url(#linear-gradient-5)"/></svg>