<?xml version="1.0" encoding="UTF-8" standalone="no"?>
<!DOCTYPE svg PUBLIC "-//W3C//DTD SVG 1.1//EN" "http://www.w3.org/Graphics/SVG/1.1/DTD/svg11.dtd">
<svg width="100%" height="100%" viewBox="0 0 788 208" version="1.1" xmlns="http://www.w3.org/2000/svg" xmlns:xlink="http://www.w3.org/1999/xlink" xml:space="preserve" xmlns:serif="http://www.serif.com/" style="fill-rule:evenodd;clip-rule:evenodd;stroke-linejoin:round;stroke-miterlimit:2;">
    <g transform="matrix(1,0,0,1,-173.162,-368.524)">
        <g id="flat--no-effects-" serif:id="flat (no effects)" transform="matrix(0.402955,0,0,0.402955,54.4943,286.965)">
            <g transform="matrix(-0.801013,-0.373518,-0.373518,0.801013,1108.41,375.165)">
                <path d="M532.773,414.044L598.17,415.111L662.96,523.097L586.91,522.318L478.636,522.318L455.319,414.648L532.773,414.044Z" style="fill:rgb(0,65,106);"/>
            </g>
            <g transform="matrix(-0.801013,-0.373518,-0.373518,0.801013,1108.41,210.898)">
                <path d="M532.773,414.044L598.17,415.111L662.96,523.097L586.91,522.318L478.636,522.318L455.319,414.648L532.773,414.044Z" style="fill:rgb(0,65,106);"/>
            </g>
            <g transform="matrix(1,0,0,1,0,-22.165)">
                <path d="M294.493,412.522L316.418,345.957L576.658,224.568L684.803,224.568L660.522,291.11L400.556,412.522L294.493,412.522Z" style="fill:rgb(170,15,251);"/>
            </g>
            <g transform="matrix(1,0,0,1,0,141.75)">
                <path d="M294.493,412.522L316.418,345.957L576.658,224.568L684.803,224.568L660.522,291.11L400.556,412.522L294.493,412.522Z" style="fill:rgb(170,15,251);"/>
            </g>
            <g transform="matrix(1,0,0,1,0,305.768)">
                <path d="M294.493,412.522L316.418,345.957L576.658,224.568L684.803,224.568L660.522,291.11L400.556,412.522L294.493,412.522Z" style="fill:rgb(170,15,251);"/>
            </g>
        </g>
        <g transform="matrix(15.6867,0,0,15.6867,-5698.91,-9335.03)">
            <g transform="matrix(13.0097,0,0,13.0097,386.927,628.752)">
                <path d="M0.154,-0.679C0.154,-0.667 0.15,-0.658 0.142,-0.65C0.134,-0.642 0.125,-0.638 0.113,-0.638C0.102,-0.638 0.093,-0.642 0.085,-0.65C0.077,-0.658 0.073,-0.667 0.073,-0.679C0.073,-0.69 0.077,-0.699 0.085,-0.707C0.093,-0.715 0.102,-0.719 0.113,-0.719C0.125,-0.719 0.134,-0.715 0.142,-0.707C0.15,-0.699 0.154,-0.69 0.154,-0.679ZM0.083,-0.517C0.083,-0.525 0.086,-0.532 0.092,-0.538C0.098,-0.544 0.105,-0.547 0.113,-0.547C0.122,-0.547 0.129,-0.544 0.135,-0.538C0.141,-0.532 0.144,-0.525 0.144,-0.517L0.144,-0.03C0.144,-0.022 0.141,-0.015 0.135,-0.009C0.129,-0.003 0.122,0 0.113,0C0.105,0 0.098,-0.003 0.092,-0.009C0.086,-0.015 0.083,-0.022 0.083,-0.03L0.083,-0.517Z" style="fill:white;fill-rule:nonzero;"/>
            </g>
            <g transform="matrix(13.0097,0,0,13.0097,389.976,628.752)">
                <path d="M0.04,-0.517C0.04,-0.525 0.042,-0.532 0.048,-0.538C0.054,-0.544 0.061,-0.547 0.07,-0.547C0.078,-0.547 0.085,-0.544 0.091,-0.538C0.097,-0.532 0.1,-0.525 0.1,-0.517L0.1,-0.46C0.16,-0.518 0.224,-0.547 0.292,-0.547C0.363,-0.547 0.422,-0.522 0.471,-0.473C0.521,-0.423 0.546,-0.363 0.546,-0.293L0.546,-0.03C0.546,-0.022 0.543,-0.015 0.537,-0.009C0.531,-0.003 0.524,0 0.515,0C0.507,0 0.5,-0.003 0.494,-0.009C0.488,-0.015 0.485,-0.022 0.485,-0.03L0.485,-0.293C0.485,-0.347 0.466,-0.392 0.428,-0.429C0.39,-0.467 0.345,-0.486 0.292,-0.486C0.24,-0.486 0.194,-0.467 0.156,-0.429C0.119,-0.392 0.1,-0.347 0.1,-0.293L0.1,-0.03C0.1,-0.022 0.097,-0.015 0.091,-0.009C0.085,-0.003 0.078,0 0.07,0C0.061,0 0.054,-0.003 0.048,-0.009C0.042,-0.015 0.04,-0.022 0.04,-0.03L0.04,-0.517Z" style="fill:white;fill-rule:nonzero;"/>
            </g>
            <g transform="matrix(13.0097,0,0,13.0097,397.599,628.752)">
                <path d="M0.525,-0.273C0.525,-0.332 0.504,-0.382 0.463,-0.424C0.421,-0.465 0.371,-0.486 0.313,-0.486C0.254,-0.486 0.204,-0.465 0.162,-0.424C0.12,-0.382 0.1,-0.332 0.1,-0.273C0.1,-0.215 0.12,-0.165 0.162,-0.123C0.204,-0.081 0.254,-0.061 0.313,-0.061C0.371,-0.061 0.421,-0.081 0.463,-0.123C0.504,-0.164 0.525,-0.215 0.525,-0.273ZM0.525,-0.751C0.525,-0.759 0.528,-0.767 0.534,-0.772C0.54,-0.778 0.547,-0.781 0.556,-0.781C0.564,-0.781 0.571,-0.778 0.577,-0.772C0.583,-0.767 0.586,-0.759 0.586,-0.751L0.586,-0.273C0.586,-0.198 0.559,-0.133 0.506,-0.08C0.452,-0.027 0.388,0 0.313,0C0.237,0 0.173,-0.027 0.119,-0.08C0.066,-0.133 0.039,-0.198 0.039,-0.273C0.039,-0.349 0.066,-0.413 0.119,-0.467C0.173,-0.52 0.237,-0.547 0.313,-0.547C0.388,-0.547 0.452,-0.52 0.506,-0.467L0.525,-0.448L0.525,-0.751Z" style="fill:white;fill-rule:nonzero;"/>
            </g>
            <g transform="matrix(13.0097,0,0,13.0097,405.73,628.752)">
                <path d="M0.154,-0.679C0.154,-0.667 0.15,-0.658 0.142,-0.65C0.134,-0.642 0.125,-0.638 0.113,-0.638C0.102,-0.638 0.093,-0.642 0.085,-0.65C0.077,-0.658 0.073,-0.667 0.073,-0.679C0.073,-0.69 0.077,-0.699 0.085,-0.707C0.093,-0.715 0.102,-0.719 0.113,-0.719C0.125,-0.719 0.134,-0.715 0.142,-0.707C0.15,-0.699 0.154,-0.69 0.154,-0.679ZM0.083,-0.517C0.083,-0.525 0.086,-0.532 0.092,-0.538C0.098,-0.544 0.105,-0.547 0.113,-0.547C0.122,-0.547 0.129,-0.544 0.135,-0.538C0.141,-0.532 0.144,-0.525 0.144,-0.517L0.144,-0.03C0.144,-0.022 0.141,-0.015 0.135,-0.009C0.129,-0.003 0.122,0 0.113,0C0.105,0 0.098,-0.003 0.092,-0.009C0.086,-0.015 0.083,-0.022 0.083,-0.03L0.083,-0.517Z" style="fill:white;fill-rule:nonzero;"/>
            </g>
            <g transform="matrix(13.0097,0,0,13.0097,408.779,628.752)">
                <path d="M0.313,-0.486C0.254,-0.486 0.204,-0.466 0.162,-0.424C0.12,-0.383 0.1,-0.333 0.1,-0.274C0.1,-0.216 0.12,-0.166 0.162,-0.124C0.204,-0.082 0.254,-0.062 0.313,-0.062C0.371,-0.062 0.421,-0.082 0.463,-0.124C0.504,-0.165 0.525,-0.215 0.525,-0.274C0.525,-0.333 0.504,-0.383 0.463,-0.424C0.421,-0.466 0.371,-0.486 0.313,-0.486ZM0.525,-0.1C0.465,-0.034 0.395,-0.001 0.313,-0.001C0.237,-0.001 0.173,-0.028 0.119,-0.081C0.066,-0.134 0.039,-0.199 0.039,-0.274C0.039,-0.349 0.066,-0.414 0.119,-0.467C0.173,-0.52 0.237,-0.547 0.313,-0.547C0.388,-0.547 0.452,-0.52 0.506,-0.467C0.559,-0.414 0.586,-0.349 0.586,-0.274L0.586,0.002C0.586,0.058 0.566,0.107 0.525,0.148C0.468,0.206 0.398,0.234 0.317,0.234C0.236,0.234 0.166,0.206 0.109,0.148C0.088,0.128 0.071,0.106 0.058,0.083C0.055,0.076 0.053,0.07 0.053,0.064C0.053,0.056 0.056,0.049 0.062,0.043C0.067,0.037 0.075,0.034 0.083,0.034C0.091,0.034 0.099,0.037 0.105,0.043C0.108,0.046 0.11,0.049 0.112,0.053C0.123,0.072 0.136,0.09 0.152,0.106C0.175,0.129 0.2,0.146 0.228,0.157C0.255,0.168 0.285,0.174 0.317,0.174C0.381,0.174 0.436,0.151 0.482,0.105C0.511,0.071 0.525,0.037 0.525,0.002L0.525,-0.1Z" style="fill:white;fill-rule:nonzero;"/>
            </g>
            <g transform="matrix(13.0097,0,0,13.0097,416.91,628.752)">
                <path d="M0.586,-0.273C0.586,-0.198 0.559,-0.133 0.506,-0.08C0.452,-0.027 0.388,0 0.313,0C0.237,0 0.173,-0.027 0.119,-0.08C0.066,-0.133 0.039,-0.198 0.039,-0.273C0.039,-0.349 0.066,-0.413 0.119,-0.467C0.173,-0.52 0.237,-0.547 0.313,-0.547C0.388,-0.547 0.452,-0.52 0.506,-0.467C0.559,-0.413 0.586,-0.349 0.586,-0.273ZM0.313,-0.486C0.254,-0.486 0.204,-0.465 0.162,-0.424C0.12,-0.382 0.1,-0.332 0.1,-0.273C0.1,-0.215 0.12,-0.165 0.162,-0.123C0.204,-0.081 0.254,-0.061 0.313,-0.061C0.371,-0.061 0.421,-0.081 0.463,-0.123C0.504,-0.164 0.525,-0.215 0.525,-0.273C0.525,-0.332 0.504,-0.382 0.463,-0.424C0.421,-0.465 0.371,-0.486 0.313,-0.486Z" style="fill:white;fill-rule:nonzero;"/>
            </g>
        </g>
    </g>
</svg>
