<?xml version="1.0" encoding="UTF-8" standalone="no"?>
<!DOCTYPE svg PUBLIC "-//W3C//DTD SVG 1.1//EN" "http://www.w3.org/Graphics/SVG/1.1/DTD/svg11.dtd">
<svg width="100%" height="100%" viewBox="0 0 158 208" version="1.1" xmlns="http://www.w3.org/2000/svg" xmlns:xlink="http://www.w3.org/1999/xlink" xml:space="preserve" xmlns:serif="http://www.serif.com/" style="fill-rule:evenodd;clip-rule:evenodd;stroke-linejoin:round;stroke-miterlimit:2;">
    <g transform="matrix(1,0,0,1,-173.162,-368.524)">
        <g id="flat--no-effects-" serif:id="flat (no effects)" transform="matrix(0.402955,0,0,0.402955,54.4943,286.965)">
            <g transform="matrix(-0.801013,-0.373518,-0.373518,0.801013,1108.41,375.165)">
                <path d="M532.773,414.044L598.17,415.111L662.96,523.097L586.91,522.318L478.636,522.318L455.319,414.648L532.773,414.044Z" style="fill:rgb(0,65,106);"/>
            </g>
            <g transform="matrix(-0.801013,-0.373518,-0.373518,0.801013,1108.41,210.898)">
                <path d="M532.773,414.044L598.17,415.111L662.96,523.097L586.91,522.318L478.636,522.318L455.319,414.648L532.773,414.044Z" style="fill:rgb(0,65,106);"/>
            </g>
            <g transform="matrix(1,0,0,1,0,-22.165)">
                <path d="M294.493,412.522L316.418,345.957L576.658,224.568L684.803,224.568L660.522,291.11L400.556,412.522L294.493,412.522Z" style="fill:rgb(170,15,251);"/>
            </g>
            <g transform="matrix(1,0,0,1,0,141.75)">
                <path d="M294.493,412.522L316.418,345.957L576.658,224.568L684.803,224.568L660.522,291.11L400.556,412.522L294.493,412.522Z" style="fill:rgb(170,15,251);"/>
            </g>
            <g transform="matrix(1,0,0,1,0,305.768)">
                <path d="M294.493,412.522L316.418,345.957L576.658,224.568L684.803,224.568L660.522,291.11L400.556,412.522L294.493,412.522Z" style="fill:rgb(170,15,251);"/>
            </g>
        </g>
    </g>
</svg>
