<svg viewBox="0 0 158 208" xmlns="http://www.w3.org/2000/svg" fill-rule="evenodd" clip-rule="evenodd" stroke-linejoin="round" stroke-miterlimit="2"><path d="M93.69 123.07l-21.27-9.5-37.165 25.104 24.664 11.195 34.948 16.296 23.731-31.243-24.909-11.853zm0-66.193L72.42 47.38 35.255 72.482l24.664 11.195 34.948 16.296 23.731-31.243L93.69 56.877z" fill="#00416a"/><path d="M0 75.737l8.835-26.822L113.7 0h43.577l-9.784 26.814L42.738 75.737H0zm0 66.051l8.835-26.823L113.7 66.051h43.577l-9.784 26.813-104.755 48.924H0zm0 66.092l8.835-26.823L113.7 132.143h43.577l-9.784 26.813L42.738 207.88H0z" fill="#aa0ffb"/></svg>