<svg viewBox="0 0 788 208" xmlns="http://www.w3.org/2000/svg" fill-rule="evenodd" clip-rule="evenodd" stroke-linejoin="round" stroke-miterlimit="2"><path d="M93.69 123.07l-21.27-9.5-37.165 25.104 24.664 11.195 34.948 16.296 23.731-31.243-24.909-11.853zm0-66.193L72.42 47.38 35.255 72.482l24.664 11.195 34.948 16.296 23.731-31.243L93.69 56.877z" fill="#00416a"/><path d="M0 75.737l8.835-26.822L113.7 0h43.577l-9.784 26.814L42.738 75.737H0zm0 66.051l8.835-26.823L113.7 66.051h43.577l-9.784 26.813-104.755 48.924H0zm0 66.092l8.835-26.823L113.7 132.143h43.577l-9.784 26.813L42.738 207.88H0z" fill="#aa0ffb"/><path d="M228.964 20.92c0 2.45-.816 4.286-2.449 5.918-1.633 1.633-3.47 2.45-5.918 2.45-2.245 0-4.082-.817-5.714-2.45-1.633-1.632-2.45-3.469-2.45-5.918 0-2.245.817-4.081 2.45-5.714 1.632-1.633 3.469-2.449 5.714-2.449 2.449 0 4.285.816 5.918 2.449s2.449 3.47 2.449 5.714zm-14.49 33.061c0-1.633.613-3.061 1.837-4.286 1.225-1.224 2.653-1.836 4.286-1.836 1.836 0 3.265.612 4.49 1.836 1.224 1.225 1.836 2.653 1.836 4.286v99.387c0 1.632-.612 3.06-1.837 4.285-1.224 1.225-2.653 1.837-4.49 1.837-1.632 0-3.06-.612-4.285-1.837-1.224-1.224-1.837-2.653-1.837-4.285V53.98zm39.054 0c0-1.633.408-3.061 1.632-4.286 1.225-1.224 2.653-1.836 4.49-1.836 1.633 0 3.061.612 4.286 1.836 1.224 1.225 1.836 2.653 1.836 4.286v11.633c12.245-11.837 25.306-17.755 39.184-17.755 14.49 0 26.53 5.102 36.53 15.102 10.204 10.203 15.306 22.448 15.306 36.734v53.673c0 1.632-.612 3.06-1.837 4.285-1.224 1.225-2.653 1.837-4.49 1.837-1.632 0-3.06-.612-4.285-1.837-1.225-1.224-1.837-2.653-1.837-4.285V99.695c0-11.02-3.878-20.204-11.633-27.755-7.755-7.755-16.938-11.633-27.754-11.633-10.612 0-20 3.878-27.755 11.633-7.551 7.55-11.429 16.734-11.429 27.755v53.673c0 1.632-.612 3.06-1.836 4.285-1.225 1.225-2.653 1.837-4.286 1.837-1.837 0-3.265-.612-4.49-1.837-1.224-1.224-1.632-2.653-1.632-4.285V53.98zm218.558 49.795c0-12.04-4.286-22.244-12.653-30.816-8.571-8.367-18.775-12.653-30.612-12.653-12.04 0-22.245 4.286-30.816 12.653-8.571 8.572-12.653 18.776-12.653 30.816 0 11.837 4.082 22.04 12.653 30.612 8.571 8.572 18.775 12.653 30.816 12.653 11.837 0 22.04-4.081 30.612-12.653 8.367-8.367 12.653-18.775 12.653-30.612zm0-97.55c0-1.632.612-3.265 1.837-4.285 1.224-1.225 2.653-1.837 4.49-1.837 1.632 0 3.06.612 4.285 1.837 1.224 1.02 1.837 2.653 1.837 4.285v97.55c0 15.306-5.51 28.571-16.327 39.388-11.02 10.816-24.081 16.326-39.387 16.326-15.51 0-28.571-5.51-39.591-16.326-10.817-10.817-16.327-24.082-16.327-39.388 0-15.51 5.51-28.57 16.327-39.591 11.02-10.816 24.081-16.326 39.591-16.326 15.306 0 28.367 5.51 39.387 16.326l3.878 3.877V6.226zm51.835 14.694c0 2.45-.816 4.286-2.449 5.918-1.633 1.633-3.47 2.45-5.918 2.45-2.245 0-4.082-.817-5.714-2.45-1.633-1.632-2.45-3.469-2.45-5.918 0-2.245.817-4.081 2.45-5.714 1.632-1.633 3.469-2.449 5.714-2.449 2.449 0 4.285.816 5.918 2.449s2.449 3.47 2.449 5.714zm-14.49 33.061c0-1.633.613-3.061 1.837-4.286 1.225-1.224 2.653-1.836 4.286-1.836 1.836 0 3.265.612 4.49 1.836 1.224 1.225 1.836 2.653 1.836 4.286v99.387c0 1.632-.612 3.06-1.837 4.285-1.224 1.225-2.653 1.837-4.49 1.837-1.632 0-3.06-.612-4.285-1.837-1.224-1.224-1.837-2.653-1.837-4.285V53.98zm94.767 6.326c-12.04 0-22.244 4.082-30.816 12.653-8.57 8.368-12.653 18.572-12.653 30.612 0 11.837 4.082 22.04 12.653 30.612 8.572 8.571 18.776 12.653 30.816 12.653 11.837 0 22.04-4.082 30.612-12.653 8.367-8.367 12.653-18.571 12.653-30.612 0-12.04-4.286-22.244-12.653-30.612-8.571-8.57-18.775-12.653-30.612-12.653zm43.265 78.775c-12.245 13.47-26.53 20.204-43.265 20.204-15.51 0-28.57-5.51-39.591-16.326-10.816-10.817-16.326-24.082-16.326-39.388 0-15.306 5.51-28.57 16.326-39.387 11.02-10.816 24.081-16.326 39.591-16.326 15.306 0 28.367 5.51 39.388 16.326 10.816 10.816 16.326 24.081 16.326 39.387v56.326c0 11.429-4.082 21.428-12.449 29.796-11.632 11.836-25.918 17.55-42.448 17.55s-30.816-5.714-42.449-17.55c-4.285-4.082-7.755-8.572-10.408-13.265-.612-1.429-1.02-2.653-1.02-3.878 0-1.633.612-3.061 1.836-4.286 1.02-1.224 2.653-1.836 4.286-1.836 1.633 0 3.265.612 4.49 1.836.612.613 1.02 1.225 1.428 2.041 2.245 3.878 4.898 7.551 8.164 10.816 4.693 4.694 9.795 8.164 15.51 10.408 5.51 2.245 11.632 3.47 18.163 3.47 13.06 0 24.285-4.694 33.673-14.082 5.918-6.938 8.775-13.877 8.775-21.02v-20.816zm139.997-35.306c0 15.306-5.51 28.571-16.326 39.388-11.02 10.816-24.081 16.326-39.387 16.326-15.51 0-28.571-5.51-39.591-16.326-10.817-10.817-16.327-24.082-16.327-39.388 0-15.51 5.51-28.57 16.327-39.591 11.02-10.816 24.08-16.326 39.59-16.326 15.307 0 28.368 5.51 39.388 16.326 10.816 11.02 16.327 24.081 16.327 39.591zm-55.713-43.469c-12.04 0-22.245 4.286-30.816 12.653-8.571 8.572-12.653 18.776-12.653 30.816 0 11.837 4.082 22.04 12.653 30.612 8.571 8.572 18.775 12.653 30.816 12.653 11.837 0 22.04-4.081 30.612-12.653 8.367-8.367 12.653-18.775 12.653-30.612 0-12.04-4.286-22.244-12.653-30.816-8.572-8.367-18.775-12.653-30.612-12.653z" fill="#fff" fill-rule="nonzero"/></svg>